Coordinates
version=1
nRows=19
nColumns=24
inDegrees=yes

Units are S.I. units (second, meters, Newtons, ...)
Angles are in degrees.

endheader
time	pelvis_tilt	pelvis_list	pelvis_rotation	pelvis_tx	pelvis_ty	pelvis_tz	hip_flexion_r	hip_adduction_r	hip_rotation_r	knee_angle_r	ankle_angle_r	subtalar_angle_r	mtp_angle_r	hip_flexion_l	hip_adduction_l	hip_rotation_l	knee_angle_l	ankle_angle_l	subtalar_angle_l	mtp_angle_l	lumbar_extension	lumbar_bending	lumbar_rotation
      0.46200000	      1.16664510	      0.87040524	      1.38979695	     -0.77134411	      0.99147851	      0.28044275	     24.61049635	      1.80280642	     -1.15779077	    -13.97676443	      5.41750807	    -12.33054987	     -0.17037781	    -16.51401185	      4.40020692	      0.72412070	     -5.32078833	     10.17539485	     -2.74458241	      0.46467287	     -3.37763951	      2.20437697	     -1.03971141
      0.46616667	      1.15945045	      0.83674450	      1.43597467	     -0.76552954	      0.99084709	      0.28071659	     24.47679065	      1.88007308	     -1.23942779	    -13.76791011	      5.16898188	    -12.42287922	     -0.24460875	    -16.50430396	      4.31439091	      0.64911597	     -6.01897822	     10.30917502	     -2.48331471	      0.58677990	     -3.33445063	      2.23863494	     -1.09827197
      0.47033333	      1.15569818	      0.79677499	      1.44476008	     -0.75971221	      0.99022095	      0.28104791	     24.35845266	      1.98520513	     -1.25483709	    -13.67830577	      4.96477041	    -12.64775849	     -0.32544768	    -16.44699366	      4.22700991	      0.46442475	     -6.82044261	     10.48603360	     -2.17064525	      0.78920315	     -3.31011331	      2.30128176	     -1.17686958
      0.47450000	      1.15073949	      0.75136028	      1.48332195	     -0.75382967	      0.98967093	      0.28133323	     24.21148342	      2.08264525	     -1.28787781	    -13.60423357	      4.67613151	    -12.82262000	     -0.37045836	    -16.38246724	      4.13007609	      0.39601956	     -7.62902968	     10.57652685	     -1.97036137	      0.96989425	     -3.25801539	      2.35439397	     -1.22190456
      0.47866667	      1.15971048	      0.70888391	      1.51263222	     -0.74794566	      0.98917973	      0.28162587	     24.06014161	      2.18054725	     -1.31162932	    -13.61969393	      4.37234663	    -13.02118438	     -0.39347407	    -16.29966090	      4.03783783	      0.32474238	     -8.50088139	     10.64485400	     -1.77430691	      1.15633928	     -3.23602156	      2.41849658	     -1.26606619
      0.48283333	      1.15726942	      0.65444911	      1.53660537	     -0.74202359	      0.98871092	      0.28193416	     23.91878437	      2.29429891	     -1.31570251	    -13.69452745	      4.03752039	    -13.26219750	     -0.39976805	    -16.16118767	      3.93174768	      0.22791139	     -9.45114025	     10.69019562	     -1.56930508	      1.36324489	     -3.19560277	      2.49140407	     -1.30571783
      0.48700000	      1.15724507	      0.59186318	      1.52099064	     -0.73608885	      0.98826404	      0.28231374	     23.78919067	      2.43802293	     -1.25483984	    -13.85715398	      3.72671812	    -13.62250019	     -0.38319565	    -15.98872295	      3.81788260	      0.02419308	    -10.47376158	     10.69764564	     -1.28481494	      1.71502924	     -3.16477686	      2.58129150	     -1.35709787
      0.49116667	      1.15705604	      0.52971872	      1.52940966	     -0.73011813	      0.98789501	      0.28265775	     23.64147550	      2.56977383	     -1.20861591	    -14.03274762	      3.35509165	    -13.93852282	     -0.34224261	    -15.79002307	      3.70117842	     -0.09943871	    -11.53807290	     10.64552980	     -1.08042336	      2.16018576	     -3.12199810	      2.66716538	     -1.37855247
      0.49533333	      1.18477579	      0.46970221	      1.55304311	     -0.72412445	      0.98759896	      0.28292438	     23.48462413	      2.67420949	     -1.27121023	    -14.29441263	      2.97194529	    -14.05313944	     -0.32831531	    -15.61662427	      3.59930393	     -0.07822241	    -12.60739433	     10.50250900	     -1.09497804	      2.31460648	     -3.11905071	      2.76974274	     -1.35018888
      0.49950000	      1.16223385	      0.38970951	      1.53393854	     -0.71813904	      0.98726068	      0.28337130	     23.35488391	      2.85079685	     -1.10083027	    -14.54327773	      2.66702841	    -14.57133728	     -0.25034831	    -15.28103377	      3.44634836	     -0.35801635	    -13.88114755	     10.41045902	     -0.69738377	      2.91573353	     -3.04273467	      2.86066192	     -1.38575481
      0.50366667	      1.15811095	      0.30651394	      1.52509291	     -0.71213583	      0.98699555	      0.28376546	     23.21587489	      3.01153757	     -1.01125435	    -14.83581587	      2.25721930	    -14.92454612	     -0.15290835	    -14.94940007	      3.29862977	     -0.52631826	    -15.17428918	     10.22179440	     -0.49196424	      3.65838139	     -2.99012057	      2.97120236	     -1.36445863
      0.50783333	      1.18674233	      0.21087401	      1.52544581	     -0.70610230	      0.98683734	      0.28412344	     23.02839069	      3.17742130	     -0.93837354	    -15.13128540	      1.87497359	    -15.23955622	      0.52968124	    -14.64422757	      3.14409046	     -0.60930620	    -16.45594044	      9.77228396	     -0.57595093	      8.83503349	     -2.97279948	      3.10699023	     -1.28931541
      0.51200000	      1.15782436	      0.13625997	      1.53561357	     -0.70009543	      0.98661312	      0.28447872	     22.93651585	      3.30532449	     -0.93037745	    -15.51322909	      1.53894860	    -15.34863846	      0.53626196	    -14.20012544	      2.99884417	     -0.73283427	    -17.88847184	      9.43662315	     -0.41561556	      8.89480015	     -2.88698960	      3.20787351	     -1.27083590
      0.51616667	      1.14718115	      0.01995507	      1.52649831	     -0.69409583	      0.98644527	      0.28490506	     22.81231064	      3.49771990	     -0.83937808	    -15.88636863	      1.22850279	    -15.64105874	      0.54387752	    -13.72175948	      2.79838757	     -0.92679675	    -19.41379901	      9.05880069	     -0.21562467	      9.02647119	     -2.82412947	      3.35619024	     -1.22785310
      0.52033333	      1.15699117	     -0.10821128	      1.49717835	     -0.68812146	      0.98633341	      0.28538257	     22.66343613	      3.72317784	     -0.66594058	    -16.27009187	      0.94562952	    -16.20365657	      0.65251730	    -13.23140076	      2.58478106	     -1.13248971	    -20.97387380	      8.53482880	     -0.15167673	     11.80489398	     -2.79940545	      3.52523652	     -1.13092009
      0.52450000	      1.15679889	     -0.23642849	      1.48057143	     -0.68214278	      0.98622912	      0.28582787	     22.53993231	      3.92068927	     -0.60801580	    -16.68575503	      0.69386663	    -16.28351503	      0.65156971	    -12.67470948	      2.35635476	     -1.35435570	    -22.62810898	      7.98965132	      0.05807547	     11.88613635	     -2.75180704	      3.68351562	     -1.08816779
      0.52866667	      1.14405122	     -0.37729214	      1.44699294	     -0.67621585	      0.98610441	      0.28632628	     22.44785505	      4.14700805	     -0.50333176	    -17.14714642	      0.49222854	    -16.59119057	      0.64320483	    -12.05517418	      2.10896286	     -1.59559096	    -24.35730767	      7.40104342	      0.22500159	     12.07421007	     -2.70556249	      3.86290756	     -1.00527680
      0.53283333	      1.18356876	     -0.57652560	      1.40996249	     -0.67027519	      0.98610783	      0.28688533	     22.23984917	      4.45872021	     -0.28357248	    -17.49501072	      0.29903707	    -17.10269485	      0.59473624	    -11.45695892	      1.78033001	     -1.87062508	    -26.12891644	      6.68472619	      0.36923077	     12.85931674	     -2.71451171	      4.10783815	     -0.91362999
      0.53700000	      1.15160826	     -0.72099476	      1.39832349	     -0.66439031	      0.98601560	      0.28733857	     22.17208638	      4.66453019	     -0.25631074	    -17.97186518	      0.19282371	    -17.12732224	      0.57923607	    -10.73248285	      1.51810687	     -2.05011306	    -27.95741504	      5.88531776	      0.43539263	     13.08227018	     -2.63428558	      4.28808898	     -0.80511494
